<svg width="75" height="75" viewBox="0 0 75 75" fill="none" xmlns="http://www.w3.org/2000/svg">
<g clip-path="url(#clip0_1033_2038)">
<path fill-rule="evenodd" clip-rule="evenodd" d="M0 0H75V75H0V0Z" fill="#FF6200"/>
<path fill-rule="evenodd" clip-rule="evenodd" d="M16.4127 66.9646C10.4822 67.4214 1.39179 63.7872 6.87994 53.677C6.87994 54.2544 8.32426 60.6099 15.5458 60.3212C19.1967 60.1745 22.4787 56.5657 24.2117 53.677C24.2117 53.0996 19.0123 55.121 17.2788 55.6992C18.4344 47.3216 27.6781 46.7438 28.8337 45.0112C36.3444 29.9898 45.0099 14.9689 60.0308 7.45825C58.8756 10.9247 56.5457 14.053 54.8314 17.2797C49.9206 26.5234 51.0766 28.2564 50.7875 40.9665C55.9811 39.8121 58.2982 38.3666 61.7642 29.7007C68.4045 38.6507 58.8756 44.1439 50.7875 46.166C51.3649 51.9432 54.2536 57.7209 59.453 61.1869C64.6525 61.7643 66.9637 55.9875 66.3859 51.3654C69.8519 54.8315 70.1406 59.1648 68.408 62.6316C64.0747 68.1198 60.8973 67.2529 57.4305 66.0977C51.0758 62.6316 48.4759 54.8315 47.3203 47.8994C47.3203 47.3212 32.8772 51.3654 32.8772 51.3654C27.6785 61.476 23.9234 66.3868 16.4127 66.9646Z" fill="white"/>
<path fill-rule="evenodd" clip-rule="evenodd" d="M35.767 43.2775C38.6556 37.4999 43.5663 28.5453 47.6106 23.3455C46.1659 28.8336 46.0367 36.4139 45.0099 41.5437C40.9664 42.1215 37.5 43.2775 35.767 43.2775Z" fill="#FF6200"/>
</g>
<defs>
<clipPath id="clip0_1033_2038">
<rect width="75" height="75" fill="white"/>
</clipPath>
</defs>
</svg>
