<svg width="84" height="50" viewBox="0 0 84 50" fill="none" xmlns="http://www.w3.org/2000/svg">
<path d="M23.4918 18.1634C23.4918 19.1895 23.5959 20.0229 23.7939 20.6376C24.0126 21.247 24.2939 21.9137 24.6794 22.6378C24.8024 22.8291 24.8692 23.0511 24.8721 23.2785C24.8721 23.5545 24.7054 23.8358 24.3512 24.1119L22.601 25.2787C22.3909 25.4304 22.1411 25.5173 21.8822 25.5287C21.6009 25.5287 21.3249 25.3933 21.0488 25.1432C20.6744 24.7404 20.3395 24.3026 20.0487 23.8358C19.7406 23.3014 19.4556 22.7539 19.1944 22.195C17.0275 24.7526 14.3137 26.034 11.0425 26.034C8.71417 26.034 6.8546 25.362 5.5003 24.0285C4.14078 22.6951 3.448 20.9136 3.448 18.6894C3.448 16.3246 4.28142 14.4078 5.96909 12.9597C7.66198 11.5116 9.90701 10.7928 12.7615 10.7928C13.6991 10.7928 14.6731 10.8761 15.6993 11.0116C16.7254 11.1522 17.7828 11.3762 18.8871 11.6262V9.59475C18.8871 7.47995 18.4444 6.00584 17.5849 5.14637C16.6994 4.2817 15.1992 3.86499 13.0636 3.86499C12.0947 3.86499 11.0998 3.97958 10.0737 4.22961C9.05417 4.47225 8.05326 4.78732 7.07858 5.17241C6.76391 5.31489 6.44027 5.43669 6.10973 5.53704C5.96651 5.58436 5.81761 5.61239 5.66698 5.62038C5.27631 5.62038 5.08359 5.3391 5.08359 4.7557V3.39098C5.08359 2.94822 5.13567 2.60965 5.27631 2.42213C5.48622 2.16656 5.75408 1.96477 6.05764 1.83353C7.02129 1.33347 8.18808 0.916762 9.54759 0.583394C10.9019 0.218773 12.3448 0.0572985 13.871 0.0572985C17.1682 0.0572985 19.5799 0.807378 21.1321 2.30753C22.6583 3.80769 23.4345 6.08918 23.4345 9.152V18.1634H23.4865H23.4918ZM12.2354 22.3878C13.1469 22.3878 14.0897 22.2211 15.0898 21.8877C16.0899 21.5543 16.9754 20.9397 17.7203 20.1063C18.167 19.5946 18.4896 18.9867 18.6631 18.33C18.8298 17.6581 18.9444 16.8559 18.9444 15.9079V14.7411C18.1031 14.5371 17.251 14.3806 16.3921 14.2723C15.5284 14.1606 14.6585 14.1032 13.7876 14.1004C11.928 14.1004 10.5737 14.465 9.65698 15.2151C8.74022 15.9652 8.30267 17.0226 8.30267 18.4134C8.30267 19.7156 8.63083 20.6897 9.32361 21.3616C9.99035 22.0544 10.9592 22.3878 12.2354 22.3878ZM34.4929 25.3933C33.9928 25.3933 33.6595 25.3099 33.4407 25.112C33.2167 24.9453 33.024 24.5599 32.8573 24.0285L26.3462 2.53151C26.2196 2.171 26.1357 1.79688 26.0962 1.41682C26.0962 0.974061 26.315 0.724036 26.7577 0.724036H29.4768C29.9976 0.724036 30.3623 0.807378 30.555 1.00011C30.779 1.16679 30.9457 1.55745 31.1123 2.08355L35.7691 20.4969L40.0924 2.08355C40.2279 1.53141 40.3946 1.16679 40.6185 1.00011C40.9513 0.796429 41.3386 0.700046 41.728 0.724036H43.947C44.4679 0.724036 44.8325 0.807378 45.0513 1.00011C45.2753 1.16679 45.468 1.55745 45.5826 2.08355L49.9581 20.7209L54.7502 2.08355C54.8393 1.68033 55.0313 1.30706 55.3076 1.00011C55.6305 0.795889 56.0098 0.69924 56.391 0.724036H58.9694C59.4122 0.724036 59.6622 0.948017 59.6622 1.41682C59.6622 1.55746 59.6309 1.6981 59.6101 1.86478C59.5651 2.10119 59.4988 2.33306 59.4122 2.55756L52.7292 24.0546C52.5677 24.6119 52.3698 24.9766 52.151 25.1432C51.8364 25.3444 51.4663 25.4411 51.0936 25.4193H48.7131C48.187 25.4193 47.8276 25.336 47.6036 25.1432C47.3797 24.9453 47.1869 24.5859 47.0775 24.0285L42.7802 6.09439L38.5089 24.0077C38.3735 24.5651 38.2068 24.9245 37.9881 25.1172C37.7641 25.3151 37.3734 25.3985 36.8786 25.3985H34.4929V25.3933ZM70.1112 26.1433C68.6727 26.1453 67.2391 25.9774 65.8399 25.6433C64.4544 25.3099 63.3761 24.9453 62.6521 24.5286C62.2093 24.2786 61.9072 24.0025 61.7926 23.7473C61.687 23.5021 61.6321 23.2381 61.6311 22.9711V21.5543C61.6311 20.9709 61.8499 20.6897 62.2666 20.6897C62.4367 20.69 62.6056 20.7182 62.7667 20.773C62.9334 20.8303 63.1834 20.9397 63.4595 21.0543C64.3971 21.471 65.4284 21.8044 66.5067 22.0283C67.6161 22.2471 68.6944 22.3617 69.8039 22.3617C71.5541 22.3617 72.9084 22.0544 73.8512 21.4449C74.3041 21.1708 74.6762 20.7814 74.9297 20.3166C75.1831 19.8518 75.3089 19.3281 75.294 18.7988C75.3034 18.4415 75.2419 18.0859 75.1132 17.7524C74.9845 17.4189 74.791 17.1143 74.544 16.8559C74.0491 16.3246 73.1063 15.8506 71.7468 15.4079L67.7255 14.1577C65.7045 13.517 64.2043 12.569 63.2928 11.3189C62.4004 10.1638 61.9135 8.74685 61.9072 7.28722C61.9072 6.12043 62.1572 5.08907 62.6521 4.19836C63.1521 3.31285 63.8189 2.53151 64.6523 1.91687C65.4857 1.28138 66.4233 0.807376 67.5328 0.474008C68.6423 0.14064 69.8039 0 71.0228 0C71.6374 0 72.2729 0.0260464 72.8823 0.109388C73.5178 0.19273 74.1012 0.307325 74.6846 0.421921C75.2367 0.557351 75.768 0.692782 76.2629 0.864675C76.7629 1.03136 77.1484 1.19804 77.4297 1.36473C77.7566 1.52913 78.0417 1.76609 78.2631 2.05751C78.4414 2.32871 78.5273 2.65028 78.5079 2.97427V4.2817C78.5079 4.86509 78.2891 5.17241 77.8724 5.17241C77.5035 5.13028 77.1461 5.01708 76.8202 4.83905C75.1452 4.09655 73.3288 3.72687 71.4968 3.7556C69.9185 3.7556 68.6683 4.00563 67.8089 4.53693C66.9494 5.05782 66.5067 5.8704 66.5067 7.01115C66.5067 7.78727 66.7827 8.45401 67.3401 8.98531C67.8922 9.51141 68.9184 10.0375 70.3873 10.5115L74.3252 11.7616C76.3202 12.4023 77.763 13.2931 78.6225 14.4338C79.482 15.5745 79.8935 16.882 79.8935 18.33C79.8935 19.5281 79.6487 20.6063 79.1746 21.5543C78.684 22.5057 77.9948 23.3406 77.1536 24.0025C76.2941 24.6953 75.268 25.2005 74.0751 25.56C72.825 25.9506 71.5228 26.1433 70.1112 26.1433Z" fill="white"/>
<path fill-rule="evenodd" clip-rule="evenodd" d="M75.346 39.655C66.2305 46.411 52.9791 49.9999 41.5873 49.9999C25.6221 49.9999 11.2352 44.0774 0.369467 34.2326C-0.489998 33.4513 0.286125 32.3939 1.30706 33.0085C13.0635 39.8478 27.5598 43.994 42.5614 43.994C52.6718 43.994 63.7875 41.8792 74.0178 37.5402C75.544 36.8475 76.8462 38.5403 75.346 39.655Z" fill="white"/>
<path fill-rule="evenodd" clip-rule="evenodd" d="M79.1431 35.3161C77.9816 33.8211 71.4392 34.5972 68.4754 34.9566C67.5899 35.0712 67.4492 34.2899 68.2514 33.7065C73.4603 30.0343 82.0289 31.0917 83.0238 32.3157C84.0239 33.5659 82.7477 42.1605 77.867 46.2755C77.1221 46.9162 76.4033 46.5881 76.7366 45.7546C77.8409 42.9939 80.3099 36.7954 79.1431 35.3213V35.3161Z" fill="white"/>
</svg>
