<svg width="76" height="19" viewBox="0 0 76 19" fill="none" xmlns="http://www.w3.org/2000/svg">
<path d="M54.717 18.8398C53.9003 18.8398 53.1327 18.7092 52.414 18.4479C51.7117 18.1702 51.1237 17.7782 50.6501 17.2719V18.5459H47.2202V0H50.8951V6.29628C51.8424 5.34898 53.1245 4.87533 54.7415 4.87533C56.0154 4.87533 57.1669 5.18565 58.1958 5.8063C59.2248 6.42694 60.0414 7.26808 60.6458 8.32971C61.2501 9.375 61.5522 10.551 61.5522 11.8576C61.5522 13.1479 61.2501 14.3238 60.6458 15.3855C60.0578 16.4471 59.2493 17.2882 58.2203 17.9089C57.1914 18.5295 56.0236 18.8398 54.717 18.8398ZM54.276 15.5325C55.2886 15.5325 56.1216 15.1895 56.7749 14.5035C57.4282 13.8175 57.7549 12.9355 57.7549 11.8576C57.7549 10.796 57.4282 9.92215 56.7749 9.23618C56.1216 8.53387 55.2886 8.18271 54.276 8.18271C53.2797 8.18271 52.463 8.5257 51.8261 9.21168C51.2054 9.89765 50.8951 10.7796 50.8951 11.8576C50.8951 12.9519 51.2054 13.842 51.8261 14.528C52.463 15.1976 53.2797 15.5325 54.276 15.5325Z" fill="white"/>
<path d="M39.6663 18.84C38.2454 18.84 37.0123 18.5297 35.967 17.909C34.9217 17.2721 34.1132 16.4228 33.5416 15.3611C32.9699 14.2995 32.6841 13.1235 32.6841 11.8332C32.6841 10.494 32.9781 9.30167 33.5661 8.25637C34.1704 7.21107 34.9788 6.38627 35.9915 5.78196C37.0041 5.17764 38.1474 4.87549 39.4213 4.87549C40.8423 4.87549 42.0428 5.16948 43.0227 5.75746C44.0027 6.34544 44.7458 7.13758 45.2521 8.13387C45.7748 9.11384 46.0361 10.2245 46.0361 11.4658C46.0361 11.7271 46.0198 11.9884 45.9871 12.2497C45.9708 12.4947 45.93 12.707 45.8646 12.8867H36.5059C36.6039 13.7197 36.9388 14.3893 37.5104 14.8956C38.0821 15.402 38.817 15.6551 39.7153 15.6551C40.3686 15.6551 40.924 15.5245 41.3813 15.2631C41.8549 15.0018 42.2224 14.6425 42.4837 14.1852L45.4236 15.5816C45.0153 16.5616 44.2967 17.3537 43.2677 17.958C42.2388 18.546 41.0383 18.84 39.6663 18.84ZM39.4213 7.81539C38.7027 7.81539 38.0902 8.01954 37.5839 8.42786C37.0939 8.83618 36.7591 9.42416 36.5794 10.1918H42.1408C42.0591 9.48949 41.7733 8.91785 41.2833 8.47686C40.7933 8.03588 40.1727 7.81539 39.4213 7.81539Z" fill="white"/>
<path d="M27.8394 18.5459V0H31.5142V18.5459H27.8394Z" fill="white"/>
<path d="M18.6764 18.84C17.2391 18.84 16.0958 18.497 15.2465 17.811C14.4136 17.1251 13.9971 16.1778 13.9971 14.9691C13.9971 13.8422 14.3891 12.9112 15.173 12.1762C15.957 11.4413 17.1493 10.9431 18.7499 10.6818L22.4493 10.0938V9.72632C22.4493 9.22 22.2451 8.79535 21.8368 8.45236C21.4448 8.10937 20.9058 7.93788 20.2199 7.93788C19.5665 7.93788 18.9867 8.11754 18.4804 8.47686C17.9904 8.83618 17.6311 9.30983 17.4025 9.89781L14.4626 8.50136C14.8545 7.39073 15.5813 6.50876 16.643 5.85545C17.7209 5.20214 18.9704 4.87549 20.3913 4.87549C21.5183 4.87549 22.5146 5.07965 23.3802 5.48797C24.2459 5.89629 24.9155 6.46793 25.3892 7.20291C25.8792 7.92155 26.1242 8.76269 26.1242 9.72632V18.546H22.6943V17.2966C21.6816 18.3255 20.3424 18.84 18.6764 18.84ZM17.7944 14.8466C17.7944 15.255 17.9496 15.5734 18.2599 15.8021C18.5702 16.0308 18.9541 16.1451 19.4114 16.1451C20.326 16.1451 21.061 15.8593 21.6163 15.2876C22.1716 14.716 22.4493 14.0218 22.4493 13.2052V12.7887L19.4114 13.3277C18.8887 13.4257 18.4886 13.5972 18.2109 13.8422C17.9333 14.0708 17.7944 14.4057 17.7944 14.8466Z" fill="white"/>
<path d="M7.10476 18.84C5.76547 18.84 4.55684 18.5378 3.47888 17.9335C2.41725 17.3129 1.56795 16.4718 0.930968 15.4101C0.310323 14.3485 0 13.1562 0 11.8332C0 10.5103 0.310323 9.32617 0.930968 8.28087C1.55161 7.21924 2.40092 6.38627 3.47888 5.78196C4.55684 5.17764 5.76547 4.87549 7.10476 4.87549C8.10105 4.87549 9.02386 5.04698 9.87316 5.38997C10.7225 5.73296 11.4493 6.21477 12.0536 6.83542C12.6579 7.43973 13.0907 8.15837 13.352 8.99134L10.1671 10.3633C9.93849 9.69365 9.5465 9.16284 8.99119 8.77085C8.45221 8.37887 7.8234 8.18287 7.10476 8.18287C6.14112 8.18287 5.34898 8.52586 4.72834 9.21184C4.10769 9.89781 3.79737 10.7798 3.79737 11.8577C3.79737 12.9357 4.10769 13.8177 4.72834 14.5037C5.34898 15.1896 6.14112 15.5326 7.10476 15.5326C7.83973 15.5326 8.47671 15.3366 9.01569 14.9446C9.55467 14.5527 9.93849 14.0218 10.1671 13.3522L13.352 14.7486C13.107 15.5326 12.6824 16.2349 12.0781 16.8556C11.4738 17.4762 10.747 17.9662 9.89766 18.3255C9.04836 18.6685 8.11739 18.84 7.10476 18.84Z" fill="white"/>
<path d="M75.8751 12.6995C75.8751 15.6209 73.5069 17.9891 70.5855 17.9891C67.6641 17.9891 65.2959 15.6209 65.2959 12.6995C65.2959 9.77814 67.6641 7.40991 70.5855 7.40991C73.5069 7.40991 75.8751 9.77814 75.8751 12.6995Z" fill="#FF6200"/>
</svg>
