<svg width="785" height="195" viewBox="0 0 785 195" fill="none" xmlns="http://www.w3.org/2000/svg">
<path d="M565.872 194.838C557.427 194.838 549.488 193.487 542.056 190.785C534.793 187.913 528.712 183.859 523.814 178.623V191.798H488.342V0H526.347V65.1151C536.144 55.3182 549.404 50.4198 566.126 50.4198C579.301 50.4198 591.209 53.6291 601.85 60.0477C612.492 66.4663 620.937 75.1652 627.187 86.1444C633.437 96.9547 636.562 109.116 636.562 122.629C636.562 135.973 633.437 148.135 627.187 159.114C621.106 170.093 612.745 178.792 602.104 185.21C591.462 191.629 579.385 194.838 565.872 194.838ZM561.312 160.634C571.784 160.634 580.399 157.087 587.155 149.993C593.912 142.898 597.29 133.777 597.29 122.629C597.29 111.65 593.912 102.613 587.155 95.519C580.399 88.2558 571.784 84.6242 561.312 84.6242C551.008 84.6242 542.563 88.1714 535.975 95.2656C529.557 102.36 526.347 111.481 526.347 122.629C526.347 133.946 529.557 143.152 535.975 150.246C542.563 157.171 551.008 160.634 561.312 160.634Z" fill="white"/>
<path d="M410.226 194.84C395.53 194.84 382.778 191.631 371.967 185.212C361.157 178.625 352.796 169.841 346.884 158.862C340.972 147.883 338.016 135.721 338.016 122.377C338.016 108.527 341.057 96.1961 347.137 85.3859C353.387 74.5756 361.748 66.0456 372.221 59.7959C382.693 53.5462 394.517 50.4214 407.692 50.4214C422.387 50.4214 434.802 53.4617 444.937 59.5425C455.071 65.6233 462.757 73.8155 467.993 84.119C473.398 94.2537 476.101 105.74 476.101 118.577C476.101 121.279 475.932 123.982 475.594 126.685C475.425 129.218 475.003 131.414 474.327 133.272H377.541C378.555 141.886 382.018 148.812 387.929 154.048C393.841 159.284 401.442 161.902 410.732 161.902C417.489 161.902 423.232 160.551 427.961 157.849C432.86 155.146 436.66 151.43 439.363 146.7L469.767 161.142C465.544 171.277 458.112 179.469 447.47 185.719C436.829 191.8 424.414 194.84 410.226 194.84ZM407.692 80.8253C400.26 80.8253 393.926 82.9367 388.69 87.1594C383.622 91.3822 380.16 97.463 378.302 105.402H435.816C434.971 98.1386 432.015 92.2267 426.948 87.6662C421.88 83.1056 415.462 80.8253 407.692 80.8253Z" fill="white"/>
<path d="M287.908 191.798V0H325.913V191.798H287.908Z" fill="white"/>
<path d="M193.148 194.84C178.284 194.84 166.46 191.293 157.677 184.199C149.062 177.104 144.755 167.308 144.755 154.808C144.755 143.153 148.809 133.525 156.917 125.924C165.024 118.323 177.355 113.172 193.908 110.469L232.167 104.388V100.588C232.167 95.3516 230.055 90.9599 225.832 87.4128C221.778 83.8657 216.204 82.0921 209.11 82.0921C202.354 82.0921 196.357 83.9501 191.121 87.6662C186.054 91.3822 182.338 96.2806 179.973 102.361L149.569 87.9195C153.623 76.4336 161.14 67.3124 172.119 60.556C183.267 53.7996 196.189 50.4214 210.884 50.4214C222.539 50.4214 232.842 52.5327 241.794 56.7555C250.747 60.9783 257.672 66.8901 262.57 74.4911C267.638 81.9232 270.171 90.6221 270.171 100.588V191.8H234.7V178.878C224.228 189.519 210.377 194.84 193.148 194.84ZM184.027 153.541C184.027 157.764 185.632 161.058 188.841 163.423C192.05 165.787 196.02 166.97 200.749 166.97C210.208 166.97 217.809 164.014 223.552 158.102C229.295 152.19 232.167 145.011 232.167 136.566V132.259L200.749 137.833C195.344 138.846 191.206 140.62 188.334 143.153C185.463 145.518 184.027 148.981 184.027 153.541Z" fill="white"/>
<path d="M73.4762 194.84C59.6255 194.84 47.1261 191.715 35.978 185.465C24.9988 179.047 16.2154 170.348 9.62792 159.369C3.2093 148.39 0 136.059 0 122.377C0 108.696 3.2093 96.4495 9.62792 85.6392C16.0465 74.66 24.8299 66.0456 35.978 59.7959C47.1261 53.5462 59.6255 50.4214 73.4762 50.4214C83.7798 50.4214 93.3232 52.1949 102.107 55.742C110.89 59.2892 118.406 64.272 124.656 70.6906C130.906 76.9403 135.382 84.3724 138.085 92.9868L105.147 107.175C102.782 100.25 98.7284 94.7604 92.9854 90.7065C87.4113 86.6527 80.9083 84.6258 73.4762 84.6258C63.5105 84.6258 55.3183 88.1729 48.8997 95.2671C42.4811 102.361 39.2718 111.483 39.2718 122.631C39.2718 133.779 42.4811 142.9 48.8997 149.994C55.3183 157.088 63.5105 160.636 73.4762 160.636C81.0772 160.636 87.6647 158.609 93.2388 154.555C98.8128 150.501 102.782 145.011 105.147 138.086L138.085 152.528C135.551 160.636 131.159 167.899 124.91 174.317C118.66 180.736 111.143 185.803 102.36 189.519C93.5766 193.066 83.9487 194.84 73.4762 194.84Z" fill="white"/>
<path d="M784.685 131.337C784.685 161.549 760.193 186.041 729.981 186.041C699.769 186.041 675.277 161.549 675.277 131.337C675.277 101.124 699.769 76.6326 729.981 76.6326C760.193 76.6326 784.685 101.124 784.685 131.337Z" fill="#FF6200"/>
</svg>
