<svg width="36" height="52" viewBox="0 0 36 52" fill="none" xmlns="http://www.w3.org/2000/svg">
<path fill-rule="evenodd" clip-rule="evenodd" d="M0.476562 10.5069C0.476562 5.12411 4.84017 0.760498 10.223 0.760498H15.969H17.969H17.9695H19.9695H25.7154C31.0982 0.760498 35.4619 5.12407 35.4619 10.5069C35.4619 13.6649 33.96 16.4721 31.6314 18.2531C33.96 20.0342 35.4619 22.8414 35.4619 25.9993C35.4619 31.3822 31.0983 35.7459 25.7154 35.7459C23.5668 35.7459 21.5806 35.0506 19.9695 33.8728V35.7459V41.493C19.9695 46.8759 15.6058 51.2395 10.223 51.2395C4.84014 51.2395 0.476562 46.8758 0.476562 41.493C0.476562 38.3347 1.97883 35.5273 4.30778 33.7462C1.97882 31.9652 0.476562 29.1577 0.476562 25.9993C0.476562 22.8414 1.9785 20.0342 4.30702 18.2532C1.9785 16.4721 0.476562 13.6649 0.476562 10.5069ZM25.6471 20.2533H25.7154C25.7334 20.2533 25.7515 20.2533 25.7695 20.2532C28.9184 20.2823 31.4619 22.8438 31.4619 25.9993C31.4619 29.1731 28.8891 31.7459 25.7154 31.7459C22.5666 31.7459 20.0092 29.2131 19.9695 26.0735V25.9251C20.0089 22.8084 22.5297 20.2896 25.6471 20.2533ZM15.9695 20.2533H15.969H10.223L10.1689 20.2532C7.02011 20.2823 4.47656 22.8438 4.47656 25.9993C4.47656 29.1731 7.04935 31.7459 10.223 31.7459H15.9695V26.0959C15.9692 26.0638 15.969 26.0315 15.969 25.9993C15.969 25.967 15.9692 25.9348 15.9695 25.9027V20.2533ZM15.969 4.7605V16.253H10.223L10.1689 16.2531C7.02016 16.2241 4.47656 13.6625 4.47656 10.5069C4.47656 7.33325 7.04931 4.7605 10.223 4.7605H15.969ZM25.7694 16.2531C28.9183 16.2241 31.4619 13.6625 31.4619 10.5069C31.4619 7.33328 28.8892 4.7605 25.7154 4.7605H19.9695V16.253V16.2533H25.6266C25.6562 16.2531 25.6857 16.253 25.7154 16.253C25.7334 16.253 25.7514 16.253 25.7694 16.2531ZM10.223 35.7466C7.04931 35.7466 4.47656 38.3194 4.47656 41.493C4.47656 44.6668 7.04935 47.2395 10.223 47.2395C13.3967 47.2395 15.9695 44.6668 15.9695 41.493V35.7466H10.223Z" fill="white"/>
</svg>
