<svg width="53" height="70" viewBox="0 0 53 70" fill="none" xmlns="http://www.w3.org/2000/svg">
<path d="M17.8102 28.4751C17.1624 27.0428 16.8719 25.3721 17.3669 23.8545C17.8617 22.3028 18.97 21.0582 20.0784 19.8986C23.164 16.8122 26.9667 14.5445 29.9847 11.4074C31.6555 9.68505 33.0364 7.6219 33.5137 5.25163C33.906 3.51259 33.7186 1.72232 33.3607 0C34.9634 1.82452 35.492 4.43328 35.0315 6.78642C34.5372 9.42916 33.0704 11.765 31.3485 13.777C29.9675 15.3971 28.3815 16.8293 26.7278 18.1595C24.8011 19.7112 22.9086 21.382 21.6982 23.5646C20.6747 25.3376 20.4359 27.5202 21.1352 29.4471C22.2778 32.7547 24.9374 35.2102 26.387 38.3303C24.7838 36.915 23.2155 35.4487 21.7486 33.8973C20.2147 32.2603 18.7651 30.5214 17.8102 28.4751ZM26.506 25.8832C26.2163 28.5945 27.6311 31.152 29.3196 33.1642C30.1377 34.0677 30.8368 35.1761 30.8707 36.438C30.9051 38.1254 29.9507 39.6947 28.7222 40.8025C29.0125 40.7688 29.217 40.5128 29.4557 40.3765C31.2973 39.1999 33.0701 37.7165 33.9738 35.6879C34.5707 34.3066 34.4344 32.6695 33.6503 31.3905C32.7292 29.8901 31.5189 28.5601 30.8029 26.9234C30.4101 26.0027 30.2738 24.9286 30.5979 23.9567C31.0245 22.6439 31.9451 21.5695 32.9171 20.6317C35.5938 18.0915 38.8334 16.2834 41.9368 14.3059C38.015 15.4311 34.1446 16.9828 30.8368 19.4213C28.7395 20.99 26.796 23.1723 26.506 25.8832ZM45.1428 38.7057C47.0015 38.8081 48.8253 40.172 49.1667 42.0477C49.4908 43.6676 48.7067 45.2702 47.7002 46.4977C46.0461 48.4755 43.8123 49.891 41.5623 51.1017C41.3401 51.2374 41.1527 51.4081 40.9822 51.5959C43.9491 50.8455 46.9156 49.7207 49.3201 47.7937C50.6495 46.6854 51.8261 45.2185 52.0821 43.4624C52.3209 41.9451 51.6904 40.3763 50.5647 39.3705C49.2004 38.1253 47.2742 37.6653 45.4664 37.9042C44.4263 38.0405 43.2841 38.2621 42.5681 39.1317C43.4209 38.9617 44.2557 38.6203 45.1428 38.7057ZM8.12553 43.5817C10.3588 44.1785 12.6609 44.3492 14.9456 44.5028C16.9917 44.6391 19.0381 44.6735 21.1014 44.6562C26.421 44.5714 31.7748 44.2129 36.9922 43.0536C37.4864 42.9344 38.0323 42.8491 38.4761 42.5422C39.3456 41.9792 40.2998 41.5358 41.238 41.0925C36.9922 41.7746 32.7294 42.3548 28.4329 42.6274C24.0849 42.9002 19.7026 43.0707 15.338 42.781C14.0933 42.6618 12.8143 42.5932 11.655 42.1155C11.3818 41.9963 11.0066 41.7581 11.1429 41.3995C11.3989 40.9391 11.9104 40.7177 12.3537 40.479C14.2296 39.5922 16.2755 39.098 18.2706 38.5183C14.843 38.4668 11.4328 39.3362 8.29607 40.6835C7.59676 41.0247 6.81252 41.2973 6.25005 41.8772C6.02786 42.1154 6.02786 42.5254 6.28389 42.7295C6.79553 43.1899 7.47717 43.3944 8.12553 43.5817ZM35.7479 48.2711C32.7638 48.7998 29.7625 49.2947 26.7444 49.4477C23.4366 49.6693 20.1288 49.4815 16.8552 49.1407C16.2245 49.0554 15.5935 48.9533 15.031 48.6636C14.7411 48.4929 14.4514 48.2203 14.4685 47.8617C14.5024 47.2992 14.9795 46.9073 15.3209 46.4978C14.264 46.873 13.2066 47.2648 12.32 47.9647C11.9444 48.2545 11.5696 48.7145 11.6717 49.2261C11.8258 49.8228 12.4054 50.1808 12.9169 50.4534C14.1783 51.1018 15.5936 51.3913 16.9751 51.6471C20.4697 52.2102 24.0336 52.2273 27.5459 51.988C31.2638 51.6982 34.9634 51.0847 38.5611 50.0273C37.5381 49.5673 36.566 49.0381 35.7479 48.2711ZM17.0088 54.1712C16.054 54.4438 15.0819 54.7681 14.2978 55.3982C13.905 55.7052 13.5985 56.2344 13.7863 56.7288C14.0251 57.3595 14.6219 57.7352 15.184 58.0582C16.6508 58.8601 18.3045 59.2348 19.9243 59.5251C23.5907 60.1044 27.3585 60.0193 31.0075 59.3716C33.1727 58.9622 35.3383 58.3825 37.3501 57.4792C36.0372 56.9334 34.7588 56.3193 33.5312 55.6034C31.3999 55.9785 29.251 56.371 27.0685 56.5073C24.1874 56.7289 21.2714 56.4901 18.3897 56.1322C17.7076 55.9786 16.8552 55.9106 16.3948 55.3136C16.1566 54.8186 16.7019 54.4606 17.0088 54.1712ZM40.3344 65.1344C42.7212 64.6407 45.1257 64.077 47.308 62.9692C47.9897 62.5764 48.8253 62.1501 49.0475 61.3322C49.1667 60.5479 48.3482 60.1385 47.7684 59.8144C48.1264 60.2244 48.3652 60.8208 48.0068 61.2979C47.41 62.0997 46.3875 62.4063 45.4835 62.7133C42.6534 63.5147 39.7202 63.8388 36.8048 64.1629C29.0808 64.8618 21.3054 65.0325 13.5818 64.3845C10.99 64.1114 8.34662 63.8216 5.87444 62.9011C5.48266 62.7304 4.88581 62.5597 4.88581 62.031C5.03882 61.5715 5.48266 61.3149 5.87444 61.0933C7.64772 60.1899 9.62566 59.6951 11.6035 59.5759C11.0243 59.2347 10.3421 59.2008 9.67717 59.2179C8.02292 59.269 6.4032 59.6951 4.83485 60.2244C3.48773 60.7181 2.10664 61.2641 1.03212 62.2533C0.605954 62.6279 0.214174 63.344 0.656912 63.8559C1.3391 64.5892 2.3965 64.7764 3.33362 64.9981C8.58539 65.902 13.905 66.4129 19.2255 66.6007C26.2845 66.8059 33.3945 66.4987 40.3344 65.1344ZM47.3252 66.0555C44.1194 67.0785 40.7948 67.6409 37.4866 68.1015C31.7748 68.8175 26.0114 69.0392 20.2652 68.869C16.77 68.7327 13.2748 68.4939 9.83018 67.9137C10.6315 68.4594 11.6207 68.6297 12.5417 68.8857C16.4125 69.7044 20.3848 69.8578 24.3238 69.977C30.1033 70.0794 35.8837 69.8578 41.5789 68.9539C44.2733 68.4772 46.9842 67.8971 49.4049 66.6352C50.6672 65.9703 51.9462 64.9467 52.1669 63.4637C50.8886 64.8274 49.0475 65.4586 47.3252 66.0555Z" fill="white"/>
</svg>
