<svg width="51" height="50" viewBox="0 0 51 50" fill="none" xmlns="http://www.w3.org/2000/svg">
<path d="M37.5827 46.8781C37.3967 46.9765 37.4124 47.0078 37.5905 46.9171C37.6483 46.8937 37.6968 46.8609 37.7389 46.8218C37.7389 46.789 37.7389 46.789 37.5827 46.8781ZM37.9577 46.6749C37.8686 46.7484 37.8686 46.7484 37.9749 46.6999C38.0311 46.6671 38.0811 46.6359 38.0811 46.6265C38.0811 46.5843 38.0561 46.5937 37.9577 46.6749ZM38.2015 46.5281C38.1124 46.6015 38.1124 46.6015 38.2186 46.5531C38.2765 46.5202 38.3249 46.4859 38.3249 46.4781C38.3249 46.439 38.2999 46.4468 38.2015 46.5281ZM38.4483 46.3827C38.3593 46.4562 38.3593 46.4562 38.4624 46.4062C38.5202 46.3749 38.5686 46.3421 38.5686 46.3327C38.5686 46.2937 38.5436 46.3015 38.4483 46.3827ZM38.7812 46.1624C38.6108 46.2765 38.5515 46.3499 38.7077 46.2687C38.8124 46.2046 38.9905 46.064 38.9593 46.064C38.8921 46.089 38.8358 46.1312 38.7796 46.1624H38.7812ZM23.8387 0.0114847C23.7246 0.0192973 23.3824 0.0505479 23.0824 0.0755485C15.976 0.719312 9.32743 4.54439 5.11328 10.4367C2.78354 13.6664 1.27101 17.4181 0.700688 21.3572C0.499122 22.7323 0.474121 23.1385 0.474121 25.0026C0.474121 26.8652 0.499122 27.2652 0.700688 28.6402C2.06165 38.0326 8.74304 45.9171 17.7995 48.839C19.4292 49.3594 21.137 49.7187 23.0824 49.9391C23.8387 50.0203 27.109 50.0203 27.8653 49.9391C31.2279 49.5641 34.067 48.7343 36.8764 47.3015C37.3077 47.0827 37.3889 47.0249 37.3311 46.9765C35.9561 45.1624 34.6061 43.3467 33.2545 41.5154L29.2591 36.12L24.2543 28.7058C22.5855 26.2245 20.9105 23.7495 19.2089 21.2932C19.1917 21.2932 19.1698 24.5885 19.1604 28.6074C19.1432 35.6466 19.1432 35.9325 19.0542 36.095C18.9651 36.2903 18.8182 36.4529 18.6229 36.5435C18.4682 36.6169 18.3292 36.6325 17.5901 36.6325H16.7448L16.5244 36.495C16.3869 36.406 16.2729 36.2825 16.1994 36.1372L16.0932 35.9169L16.101 26.1183L16.1182 16.3196L16.2729 16.1243C16.3713 16.004 16.4932 15.9056 16.6307 15.8321C16.8354 15.7337 16.9166 15.7181 17.762 15.7181C18.7542 15.7181 18.9182 15.7571 19.1792 16.0431C21.2042 19.0619 23.223 22.0885 25.209 25.1245C28.4575 30.0496 32.892 36.77 35.0717 40.067L39.0358 46.0655L39.2312 45.9359C41.1359 44.6655 42.8687 43.153 44.3641 41.4279C47.5141 37.8216 49.5579 33.3856 50.2501 28.6511C50.4517 27.2761 50.4767 26.8683 50.4767 25.0057C50.4767 23.1416 50.4517 22.7432 50.2501 21.3682C48.8892 11.9758 42.2078 4.09126 33.1513 1.16776C31.4576 0.63181 29.7153 0.266177 27.9512 0.0786735C27.4778 0.030235 24.2465 -0.0275786 23.8402 0.0146097L23.8387 0.0114847ZM34.0686 15.1321C34.3045 15.2446 34.4826 15.4571 34.5639 15.7009C34.6061 15.8321 34.6139 18.5494 34.6061 24.6698L34.5889 33.4575L33.0435 31.0824L31.4888 28.7058V22.326C31.4888 18.19 31.506 15.8712 31.5279 15.7571C31.6013 15.4962 31.7794 15.2774 32.0169 15.1399C32.2107 15.0415 32.2857 15.0337 33.0592 15.0337C33.7826 15.0337 33.906 15.0415 34.0686 15.1321Z" fill="white"/>
</svg>
