<svg width="64" height="64" viewBox="0 0 64 64" fill="none" xmlns="http://www.w3.org/2000/svg">
<path d="M63.9959 0H-0.00012207V63.996H63.9999L63.9959 0ZM60.9023 47.2725L53.8621 10.1497L16.7394 3.09356H60.9183L60.9023 47.2725ZM30.4532 33.5468L55.8275 57.6654L23.397 40.603L6.33455 8.16844L30.4532 33.5468ZM8.1723 6.33462L40.6029 23.3771L57.6653 55.8116L33.5308 30.4532L8.1723 6.33462ZM43.6964 20.2875L11.4374 4.95926L50.7526 13.2313L59.0447 52.5586L43.6964 20.2875ZM20.3034 43.7085L52.5585 59.0368L13.2433 50.7647L4.97119 11.4494L20.3034 43.7085ZM3.09344 16.7355L10.1497 53.8582L47.2764 60.9144H3.09344V16.7355Z" fill="#FF6200"/>
</svg>
