<svg width="64" height="64" viewBox="0 0 64 64" fill="none" xmlns="http://www.w3.org/2000/svg">
<g clip-path="url(#clip0_1203_1828)">
<path d="M33.5508 0.035914C33.0405 0.0119947 32.5223 0 32.0041 0H0.000183105V64H32.0041C32.5223 64 33.0405 64 33.5508 63.9641C41.7663 63.5747 49.5164 60.0371 55.1928 54.0853C60.8692 48.1336 64.036 40.2247 64.036 32C64.036 23.7754 60.8692 15.8665 55.1928 9.91468C49.5164 3.9629 41.7663 0.425278 33.5508 0.035914ZM30.4573 3.09356V28.2686L5.29034 3.09356H30.4573ZM3.09365 5.28217L29.8035 31.992L3.09365 58.7019V5.28217ZM5.28236 60.9065L30.4573 35.7354V60.9065H5.28236ZM52.4431 52.439C47.4048 57.4882 40.6738 60.4908 33.5508 60.8666V3.13736C39.1283 3.4353 44.5001 5.34303 49.0162 8.62966C53.5323 11.9163 56.9993 16.4411 58.9979 21.6567C60.9966 26.8723 61.4411 32.5553 60.2778 38.0183C59.1145 43.4812 56.3932 48.4901 52.4431 52.439Z" fill="#FF6200"/>
</g>
<defs>
<clipPath id="clip0_1203_1828">
<rect width="64.004" height="64" fill="white"/>
</clipPath>
</defs>
</svg>
