<svg width="64" height="64" viewBox="0 0 64 64" fill="none" xmlns="http://www.w3.org/2000/svg">
<path d="M6.10352e-05 0V64H64.0001V0H6.10352e-05ZM3.09362 60.9065V33.5906C10.2125 33.9788 16.9375 36.9811 21.9792 42.022C27.0209 47.063 30.0243 53.7876 30.4134 60.9065H3.09362ZM30.4134 30.4532H3.09362V3.13736C10.2125 3.52549 16.9375 6.52795 21.9792 11.5689C27.0209 16.6098 30.0243 23.3344 30.4134 30.4532ZM30.4532 33.5467V48.7355C27.2789 42.0828 21.9173 36.7211 15.2646 33.5467H30.4532ZM33.5468 60.9065V33.5906C40.6657 33.9788 47.3907 36.9811 52.4324 42.022C57.474 47.063 60.4775 53.7876 60.8666 60.9065H33.5468ZM33.5468 3.13736C40.6657 3.52549 47.3907 6.52795 52.4324 11.5689C57.474 16.6098 60.4775 23.3344 60.8666 30.4532H33.5588L33.5468 3.13736ZM30.4532 3.09356V18.2822C27.2789 11.6295 21.9173 6.26792 15.2646 3.09356H30.4532ZM45.7177 33.5467H60.9065V48.7355C57.7308 42.0837 52.3695 36.7224 45.7177 33.5467ZM45.7177 3.09356H60.9065V18.2822C57.7308 11.6304 52.3695 6.26926 45.7177 3.09356Z" fill="#FF6200"/>
</svg>
