<svg width="51" height="50" viewBox="0 0 51 50" fill="none" xmlns="http://www.w3.org/2000/svg">
<path d="M18.1733 4.66456H30.4075C30.8505 4.66456 31.205 5.01266 31.205 5.44304V21.8544C31.2016 22.0632 31.1159 22.2621 30.9666 22.4079C30.8172 22.5537 30.6162 22.6346 30.4075 22.6329H19.9265C16.841 22.6329 14.3379 25.0696 14.3379 28.076V31.7532C14.3321 31.9608 14.2449 32.1578 14.0951 32.3017C13.9453 32.4455 13.7449 32.5247 13.5372 32.5222H5.75876C5.54948 32.5247 5.34771 32.4442 5.19765 32.2983C5.04759 32.1524 4.96146 31.9529 4.95813 31.7437V19.231C4.96146 19.0223 5.04715 18.8233 5.19653 18.6775C5.34591 18.5317 5.54686 18.4508 5.7556 18.4525H25.1037C26.4265 18.4525 27.4993 17.4082 27.4993 16.1203C27.4956 15.8095 27.4306 15.5026 27.3082 15.217C27.1857 14.9314 27.0082 14.6728 26.7857 14.4559C26.5632 14.239 26.3001 14.068 26.0115 13.9529C25.7229 13.8377 25.4144 13.7806 25.1037 13.7848H17.3727V5.44304C17.376 5.23376 17.4622 5.03434 17.6122 4.88843C17.7623 4.74252 17.964 4.66202 18.1733 4.66456ZM35.9961 12.8671V5.44304C35.9961 2.43671 33.4961 0 30.4075 0H18.1733C15.0847 0 12.5815 2.43671 12.5815 5.44304V13.7848H5.75876C2.66699 13.7848 0.166992 16.2215 0.166992 19.2278V31.7437C0.166992 34.75 2.66699 37.1867 5.7556 37.1867H13.5404C13.8094 37.1867 14.0784 37.1677 14.3379 37.1329V44.557C14.3379 47.5633 16.8379 50 19.9265 50H32.1607C35.2493 50 37.7524 47.5633 37.7524 44.557V36.2152H44.5752C47.6638 36.2152 50.167 33.7785 50.167 30.7722V18.2532C50.167 15.2468 47.667 12.8101 44.5752 12.8101H36.7967C36.5246 12.8101 36.2588 12.8291 35.9961 12.8671ZM19.129 31.7722V28.1456C19.1324 27.9368 19.218 27.7379 19.3674 27.5921C19.5168 27.4463 19.7177 27.3654 19.9265 27.3671H30.4075C33.4961 27.3671 35.9961 24.9304 35.9961 21.9241V18.2468C36.0019 18.0392 36.0891 17.8422 36.2389 17.6983C36.3887 17.5545 36.5891 17.4753 36.7967 17.4778H44.5752C45.0183 17.4778 45.3759 17.826 45.3759 18.2563V30.769C45.3725 30.9777 45.2868 31.1767 45.1375 31.3225C44.9881 31.4683 44.7871 31.5492 44.5784 31.5475H25.2303C24.9198 31.5433 24.6116 31.6003 24.3232 31.7152C24.0348 31.8302 23.7719 32.0008 23.5494 32.2174C23.327 32.434 23.1493 32.6923 23.0267 32.9775C22.9041 33.2627 22.8388 33.5693 22.8347 33.8797C22.8347 35.1709 23.9075 36.2152 25.2303 36.2152H32.9581V44.557C32.9548 44.7662 32.8687 44.9657 32.7186 45.1116C32.5686 45.2575 32.3668 45.338 32.1575 45.3354H19.9265C19.7177 45.3371 19.5168 45.2563 19.3674 45.1105C19.218 44.9646 19.1324 44.7657 19.129 44.557V31.7722Z" fill="white"/>
</svg>
