<svg width="57" height="50" viewBox="0 0 57 50" fill="none" xmlns="http://www.w3.org/2000/svg">
<path d="M25.2489 36.6231C26.2783 36.6699 27.3302 36.7036 28.3952 36.7036C29.4714 36.7036 30.5345 36.6811 31.577 36.6231C30.5345 37.9707 29.5051 39.163 28.4157 40.2991L28.4307 40.2841C27.347 39.1611 26.3064 37.967 25.3256 36.7242L25.2489 36.6231ZM14.584 35.1258C16.6111 35.6405 19.0836 36.0785 21.6066 36.348L21.8518 36.3686C23.3959 38.4892 24.9569 40.3552 26.632 42.1109L26.6114 42.0884C24.1577 44.8267 20.8467 46.7508 17.1014 47.4414L16.9985 47.4564C16.991 47.4564 16.9835 47.4564 16.976 47.4564C16.5119 47.4564 16.0739 47.3422 15.6902 47.1401L15.7052 47.1476C14.1479 46.2585 13.4723 42.8577 13.9982 38.4873C14.1236 37.4111 14.3295 36.2787 14.5822 35.1239L14.584 35.1258ZM42.2531 35.1014C42.4739 35.9886 42.6817 37.1191 42.8295 38.2683L42.8464 38.4293C43.3835 42.7978 42.721 46.1949 41.1768 47.1026C40.8325 47.2936 40.4207 47.4059 39.9827 47.4059C39.9397 47.4059 39.8966 47.404 39.8536 47.4021H39.8592C36.0166 46.7002 32.7075 44.7892 30.2593 42.0847L30.2462 42.0697C31.8914 40.3421 33.4412 38.4798 34.8618 36.5202L34.9704 36.363C37.733 36.0747 40.2092 35.6293 42.6218 35.021L42.2531 35.0996V35.1014ZM16.772 28.1163C17.24 29.0335 17.7303 29.9468 18.2694 30.864C18.8072 31.7761 19.3568 32.667 19.9183 33.5367C18.2937 33.299 16.7252 32.9996 15.226 32.6346C15.6472 31.1616 16.175 29.6361 16.7702 28.1126L16.772 28.1163ZM40.0332 28.0696C40.6528 29.6062 41.1787 31.1391 41.6148 32.6252C40.1175 32.9921 38.5359 33.3028 36.9001 33.5367C37.4616 32.6589 38.0231 31.7549 38.549 30.8284C39.0749 29.9169 39.5672 28.9848 40.037 28.0677L40.0332 28.0696ZM12.7199 18.0579C13.5359 20.8243 14.4118 23.1377 15.4319 25.3687L15.2915 25.0281C14.4193 26.9091 13.5565 29.2094 12.849 31.5771L12.7517 31.9608C11.4303 31.5546 10.3672 31.156 9.33212 30.7086L9.54736 30.791C5.49705 29.0672 2.8767 26.8006 2.8767 25.0037C2.8767 23.2069 5.49705 20.9291 9.54736 19.2128C10.53 18.7916 11.6081 18.4117 12.7199 18.0579ZM44.0499 18.0486C45.1822 18.3986 46.2584 18.7898 47.2654 19.2128C51.3157 20.9441 53.9361 23.2069 53.9361 25.0037C53.9248 26.8006 51.3045 29.0728 47.2542 30.7928C46.2715 31.214 45.1953 31.5921 44.0854 31.9458C43.2619 29.1701 42.3859 26.8586 41.3696 24.6238L41.5119 24.9757C42.3803 23.0965 43.245 20.7962 43.9507 18.4285L44.0499 18.043V18.0486ZM36.8851 16.4708C38.5116 16.7122 40.0782 17.0079 41.5774 17.3767C41.1562 18.8553 40.6303 20.3751 40.0332 21.8986C39.5653 20.9871 39.0749 20.0681 38.5359 19.1529C38.01 18.2358 37.4485 17.343 36.887 16.4726L36.8851 16.4708ZM19.9052 16.4708C19.3437 17.3523 18.7822 18.2545 18.2581 19.1847C17.7322 20.0962 17.24 21.0133 16.772 21.9304C16.1525 20.3957 15.6266 18.8665 15.1905 17.3767C16.6878 17.0267 18.2656 16.7141 19.9033 16.4745L19.9052 16.4708ZM28.4064 15.8756C30.1377 15.8756 31.8615 15.9542 33.5572 16.0927C34.5068 17.454 35.4289 18.9039 36.3236 20.4425C37.1933 21.9398 37.9869 23.4571 38.7044 24.9944C37.9838 26.5273 37.1939 28.0583 36.3348 29.5557C35.4458 31.0998 34.5268 32.5691 33.5741 33.9298C31.8709 34.0776 30.1452 34.1581 28.4045 34.1581C26.6732 34.1581 24.9494 34.0758 23.2537 33.941C22.3047 32.5803 21.3782 31.1241 20.4873 29.5912C19.6176 28.0939 18.824 26.5766 18.1065 25.0393C18.8159 23.5027 19.617 21.9679 20.4761 20.4687C21.3651 18.9245 22.2841 17.4609 23.2368 16.1002C24.94 15.9504 26.6657 15.8718 28.4064 15.8718V15.8756ZM28.3708 9.7346C29.4564 10.8576 30.497 12.0499 31.4759 13.2927L31.5508 13.3919C30.5214 13.3451 29.4695 13.3132 28.4045 13.3132C27.3283 13.3132 26.2652 13.3357 25.2227 13.3919C26.2633 12.0442 27.2927 10.852 28.3839 9.71588L28.3689 9.73085L28.3708 9.7346ZM16.9517 2.59976C20.7943 3.30351 24.1015 5.21449 26.5515 7.9172L26.5646 7.93217C24.9194 9.6616 23.3697 11.5239 21.9491 13.4873L21.8405 13.6445C19.0798 13.9309 16.6036 14.3726 14.1929 14.9809L14.5597 14.9023C14.2977 13.7568 14.103 12.6469 13.9664 11.5819C13.4292 7.21345 14.0918 3.81635 15.6359 2.91233C16.0215 2.73078 16.4726 2.61848 16.948 2.6035H16.9536L16.9517 2.59976ZM39.8049 2.55297V2.56794C39.8292 2.56794 39.8573 2.56607 39.8873 2.56607C40.3346 2.56607 40.7557 2.6765 41.1263 2.87115L41.1113 2.86367C42.6686 3.75646 43.3442 7.15543 42.8183 11.5277C42.6929 12.6039 42.487 13.7381 42.2343 14.8948C40.2036 14.3745 37.7311 13.9346 35.2081 13.667L34.9685 13.6464C33.4225 11.5239 31.8615 9.65786 30.1863 7.90035L30.2088 7.92281C32.6626 5.19016 35.968 3.26608 39.7057 2.57169L39.8105 2.55484L39.8049 2.55297ZM39.8161 0.00374308C35.2455 0.698135 31.2888 2.91795 28.3989 6.12039L28.3839 6.13723C25.4735 2.93666 21.5167 0.731826 17.0584 0.0636369L16.9536 0.0505352C16.9293 0.0505352 16.8993 0.0505352 16.8694 0.0505352C15.9504 0.0505352 15.0875 0.291982 14.3407 0.714981L14.3669 0.701879C11.1514 2.55671 10.4308 8.33645 12.091 15.5892C4.97111 17.7884 0.340576 21.3034 0.340576 25.0075C0.340576 28.7265 4.99544 32.2509 12.1359 34.4333C10.4888 41.7141 11.2244 47.5032 14.4474 49.3561C15.1549 49.7623 16.0046 50 16.9087 50C16.9498 50 16.991 50 17.0303 49.9981H17.0247C21.5953 49.3037 25.5521 47.0821 28.4419 43.8777L28.4569 43.8609C31.3674 47.0633 35.3241 49.2682 39.7824 49.9364L39.8873 49.9495C39.9153 49.9495 39.9509 49.9495 39.9846 49.9495C40.898 49.9495 41.7571 49.7099 42.5001 49.2925L42.4739 49.3056C45.6876 47.4526 46.41 41.6729 44.7499 34.4183C51.8435 32.2378 56.4741 28.7153 56.4741 25.0056C56.4741 21.2866 51.8192 17.7622 44.6787 15.5742C46.3258 8.30089 45.5903 2.50618 42.3672 0.651344C41.6522 0.241447 40.795 0 39.8816 0C39.8573 0 39.833 0 39.8086 0H39.8124L39.8161 0.00374308ZM33.6227 25.0075C33.6227 27.8955 31.2813 30.237 28.3933 30.237C25.5053 30.237 23.1638 27.8955 23.1638 25.0075C23.1638 22.1195 25.5053 19.778 28.3933 19.778C29.8382 19.778 31.1446 20.3639 32.0917 21.3091C33.0388 22.2561 33.6227 23.5625 33.6227 25.0075Z" fill="white"/>
</svg>
